<mxfile host="app.diagrams.net" modified="2024-01-09T08:53:33.479Z" agent="Mozilla/5.0 (Windows NT 10.0; Win64; x64) AppleWebKit/537.36 (KHTML, like Gecko) Chrome/119.0.0.0 Safari/537.36" version="22.1.16" etag="WNa1H80W4lU0zhutb4hC" type="github">
  <diagram name="第 1 页" id="4uQxlcdzISgn30B2jAEv">
    <mxGraphModel>
      <root>
        <mxCell id="0" />
        <mxCell id="1" parent="0" />
      </root>
    </mxGraphModel>
  </diagram>
</mxfile>
